<svg width="49" height="42" viewBox="0 0 49 42" fill="none" xmlns="http://www.w3.org/2000/svg">
<path d="M31 11L24 3L17 11" stroke="#1E0A3C" stroke-width="2" stroke-linecap="round" stroke-linejoin="round"/>
<path d="M24 3V21" stroke="#1E0A3C" stroke-width="2" stroke-linecap="round" stroke-linejoin="round"/>
<path d="M6.4375 32.5H7.4375C7.14063 30.9531 5.84375 29.8906 4.15625 29.8906C2.10547 29.8906 0.65625 31.4688 0.65625 34C0.65625 36.5312 2.09375 38.1094 4.21875 38.1094C6.125 38.1094 7.48438 36.8398 7.48438 34.8594V34H4.4375V34.8594H6.54688C6.51953 36.2969 5.57422 37.2031 4.21875 37.2031C2.73438 37.2031 1.59375 36.0781 1.59375 34C1.59375 31.9219 2.73438 30.7969 4.15625 30.7969C5.3125 30.7969 6.09766 31.4492 6.4375 32.5ZM11.4561 38.125C13.0811 38.125 14.1748 36.8906 14.1748 35.0312C14.1748 33.1562 13.0811 31.9219 11.4561 31.9219C9.83105 31.9219 8.7373 33.1562 8.7373 35.0312C8.7373 36.8906 9.83105 38.125 11.4561 38.125ZM11.4561 37.2969C10.2217 37.2969 9.65918 36.2344 9.65918 35.0312C9.65918 33.8281 10.2217 32.75 11.4561 32.75C12.6904 32.75 13.2529 33.8281 13.2529 35.0312C13.2529 36.2344 12.6904 37.2969 11.4561 37.2969ZM21.2852 32H20.0039V30.5625H19.082V32H18.1758V32.7812H19.082V36.5312C19.082 37.5781 19.9258 38.0781 20.707 38.0781C21.0508 38.0781 21.2695 38.0156 21.3945 37.9687L21.207 37.1406C21.1289 37.1562 21.0039 37.1875 20.8008 37.1875C20.3945 37.1875 20.0039 37.0625 20.0039 36.2812V32.7812H21.2852V32ZM25.0449 38.125C26.6699 38.125 27.7637 36.8906 27.7637 35.0312C27.7637 33.1562 26.6699 31.9219 25.0449 31.9219C23.4199 31.9219 22.3262 33.1562 22.3262 35.0312C22.3262 36.8906 23.4199 38.125 25.0449 38.125ZM25.0449 37.2969C23.8105 37.2969 23.248 36.2344 23.248 35.0312C23.248 33.8281 23.8105 32.75 25.0449 32.75C26.2793 32.75 26.8418 33.8281 26.8418 35.0312C26.8418 36.2344 26.2793 37.2969 25.0449 37.2969ZM34.874 32H33.5928V30.5625H32.6709V32H31.7646V32.7812H32.6709V36.5312C32.6709 37.5781 33.5146 38.0781 34.2959 38.0781C34.6396 38.0781 34.8584 38.0156 34.9834 37.9687L34.7959 37.1406C34.7178 37.1562 34.5928 37.1875 34.3896 37.1875C33.9834 37.1875 33.5928 37.0625 33.5928 36.2812V32.7812H34.874V32ZM38.6338 38.125C40.2588 38.125 41.3525 36.8906 41.3525 35.0312C41.3525 33.1562 40.2588 31.9219 38.6338 31.9219C37.0088 31.9219 35.915 33.1562 35.915 35.0312C35.915 36.8906 37.0088 38.125 38.6338 38.125ZM38.6338 37.2969C37.3994 37.2969 36.8369 36.2344 36.8369 35.0312C36.8369 33.8281 37.3994 32.75 38.6338 32.75C39.8682 32.75 40.4307 33.8281 40.4307 35.0312C40.4307 36.2344 39.8682 37.2969 38.6338 37.2969ZM42.7598 40.25H43.6816V37.0781H43.7598C43.9629 37.4062 44.3535 38.125 45.5098 38.125C47.0098 38.125 48.0566 36.9219 48.0566 35.0156C48.0566 33.125 47.0098 31.9219 45.4941 31.9219C44.3223 31.9219 43.9629 32.6406 43.7598 32.9531H43.6504V32H42.7598V40.25ZM43.666 35C43.666 33.6562 44.2598 32.75 45.3848 32.75C46.5566 32.75 47.1348 33.7344 47.1348 35C47.1348 36.2812 46.541 37.2969 45.3848 37.2969C44.2754 37.2969 43.666 36.3594 43.666 35Z" fill="black"/>
</svg>
