<svg width="18" height="19" viewBox="0 0 18 19" fill="none" xmlns="http://www.w3.org/2000/svg">
<path d="M15.976 8.90945V9.57052C15.9751 11.12 15.468 12.6277 14.5304 13.8688C13.5927 15.1098 12.2748 16.0177 10.7731 16.4571C9.27135 16.8964 7.66635 16.8437 6.19742 16.3067C4.72849 15.7697 3.47434 14.7772 2.62201 13.4774C1.76969 12.1775 1.36485 10.6398 1.46789 9.09363C1.57093 7.54748 2.17631 6.07571 3.19376 4.89781C4.2112 3.71992 5.58619 2.89901 7.11367 2.55753C8.64114 2.21605 10.2392 2.37228 11.6697 3.00293" stroke="url(#paint0_linear_452_1291)" stroke-width="1.45238" stroke-linecap="round" stroke-linejoin="round"/>
<path d="M15.9761 3.82227L8.71422 11.015L6.53564 8.85934" stroke="url(#paint1_linear_452_1291)" stroke-width="1.45238" stroke-linecap="round" stroke-linejoin="round"/>
<defs>
<linearGradient id="paint0_linear_452_1291" x1="8.71406" y1="2.38086" x2="8.71406" y2="16.752" gradientUnits="userSpaceOnUse">
<stop stop-color="#50E7C2"/>
<stop offset="0.228529" stop-color="#00CF9D"/>
<stop offset="1" stop-color="#00934C"/>
</linearGradient>
<linearGradient id="paint1_linear_452_1291" x1="11.2559" y1="3.82227" x2="11.2559" y2="11.015" gradientUnits="userSpaceOnUse">
<stop stop-color="#50E7C2"/>
<stop offset="0.228529" stop-color="#00CF9D"/>
<stop offset="1" stop-color="#00934C"/>
</linearGradient>
</defs>
</svg>
