<svg width="24" height="24" viewBox="0 0 24 24" fill="none" xmlns="http://www.w3.org/2000/svg">
<path fill-rule="evenodd" clip-rule="evenodd" d="M6 2H23V0H5C2.79086 0 1 1.79086 1 4V20C1 22.2091 2.79086 24 5 24H23V4H6C5.44772 4 5 3.55228 5 3C5 2.44772 5.44772 2 6 2ZM13 7C14.933 7 16.5 8.567 16.5 10.5C16.5 12.433 14.933 14 13 14C11.067 14 9.5 12.433 9.5 10.5C9.50234 8.56797 11.068 7.00234 13 7ZM13 16C9.69141 16 7 17.5308 7 19.4126V20H19V19.4126C19 17.5308 16.3086 16 13 16Z" fill="#823CFF"/>
</svg>
