<svg width="24" height="24" viewBox="0 0 24 24" fill="none" xmlns="http://www.w3.org/2000/svg">
<path fill-rule="evenodd" clip-rule="evenodd" d="M20.1124 12C20.1124 12.534 20.0584 13.056 19.9584 13.561L21.7644 15.05C22.2674 15.464 22.3964 16.182 22.0714 16.746L21.2024 18.254C20.8764 18.818 20.1914 19.064 19.5824 18.836L17.3844 18.011C16.6044 18.695 15.6944 19.228 14.6924 19.57L14.3074 21.886C14.2004 22.529 13.6454 23 12.9934 23H11.2554C10.6044 23 10.0494 22.529 9.9424 21.886L9.55739 19.57C8.5554 19.229 7.64439 18.695 6.8654 18.011L4.6674 18.836C4.0584 19.064 3.3724 18.818 3.0474 18.254L2.1784 16.746C1.8534 16.182 1.9824 15.464 2.4844 15.05L4.2914 13.561C4.1904 13.056 4.1374 12.534 4.1374 12C4.1374 11.465 4.1904 10.944 4.2914 10.439L2.4844 8.95C1.9824 8.536 1.8534 7.818 2.1784 7.254L3.0474 5.746C3.3724 5.182 4.0584 4.936 4.6674 5.164L6.8654 5.989C7.64439 5.305 8.5554 4.771 9.55739 4.43L9.9424 2.114C10.0494 1.471 10.6044 1 11.2554 1H12.9934C13.6454 1 14.2004 1.471 14.3074 2.114L14.6924 4.43C15.6944 4.771 16.6044 5.305 17.3844 5.989L19.5824 5.164C20.1914 4.936 20.8764 5.182 21.2024 5.746L22.0714 7.254C22.3964 7.818 22.2674 8.536 21.7644 8.95L19.9584 10.439C20.0584 10.944 20.1124 11.465 20.1124 12ZM12.124 15C13.781 15 15.124 13.657 15.124 12C15.124 10.343 13.781 9 12.124 9C10.468 9 9.12402 10.343 9.12402 12C9.12402 13.657 10.468 15 12.124 15Z" fill="#823CFF"/>
<path d="M19.9584 13.561L19.4679 13.4639C19.4322 13.6443 19.4984 13.8298 19.6403 13.9468L19.9584 13.561ZM21.7644 15.05L21.4463 15.4358L21.4466 15.4361L21.7644 15.05ZM22.0714 16.746L22.5046 16.9956L22.5046 16.9956L22.0714 16.746ZM21.2024 18.254L21.6353 18.5042L21.6356 18.5036L21.2024 18.254ZM19.5824 18.836L19.4067 19.3041L19.4071 19.3043L19.5824 18.836ZM17.3844 18.011L17.5601 17.5429C17.3875 17.4781 17.1933 17.5135 17.0547 17.6351L17.3844 18.011ZM14.6924 19.57L14.5309 19.0968C14.3568 19.1562 14.2293 19.3065 14.1992 19.488L14.6924 19.57ZM14.3074 21.886L14.8006 21.9681L14.8006 21.968L14.3074 21.886ZM9.9424 21.886L9.44916 21.968L9.44918 21.9681L9.9424 21.886ZM9.55739 19.57L10.0506 19.488C10.0204 19.3063 9.89282 19.156 9.71848 19.0967L9.55739 19.57ZM6.8654 18.011L7.1953 17.6353C7.0567 17.5136 6.86237 17.4781 6.68969 17.5429L6.8654 18.011ZM4.6674 18.836L4.8427 19.3043L4.8431 19.3041L4.6674 18.836ZM3.0474 18.254L3.48062 18.0044L3.48061 18.0044L3.0474 18.254ZM2.1784 16.746L1.74517 16.9956L1.74518 16.9956L2.1784 16.746ZM2.4844 15.05L2.16643 14.6641L2.16627 14.6643L2.4844 15.05ZM4.2914 13.561L4.60936 13.9469C4.75161 13.8297 4.81783 13.6437 4.78169 13.4629L4.2914 13.561ZM4.2914 10.439L4.78169 10.5371C4.81783 10.3563 4.75161 10.1703 4.60936 10.0531L4.2914 10.439ZM2.4844 8.95L2.16627 9.33574L2.16643 9.33587L2.4844 8.95ZM2.1784 7.254L1.74518 7.00435L1.74517 7.00436L2.1784 7.254ZM3.0474 5.746L3.48061 5.99565L3.48062 5.99564L3.0474 5.746ZM4.6674 5.164L4.8431 4.69589L4.8427 4.69574L4.6674 5.164ZM6.8654 5.989L6.68969 6.45711C6.86237 6.52192 7.0567 6.48641 7.1953 6.36472L6.8654 5.989ZM9.55739 4.43L9.71848 4.90334C9.89282 4.84401 10.0204 4.69365 10.0506 4.51199L9.55739 4.43ZM9.9424 2.114L9.44918 2.03192L9.44916 2.03201L9.9424 2.114ZM14.3074 2.114L14.8006 2.03201L14.8006 2.03192L14.3074 2.114ZM14.6924 4.43L14.1992 4.51199C14.2294 4.69365 14.357 4.84401 14.5313 4.90334L14.6924 4.43ZM17.3844 5.989L17.0547 6.36493C17.1933 6.48646 17.3875 6.52188 17.5601 6.45711L17.3844 5.989ZM19.5824 5.164L19.4071 4.69574L19.4067 4.69589L19.5824 5.164ZM21.2024 5.746L21.6356 5.49635L21.6353 5.49578L21.2024 5.746ZM22.0714 7.254L22.5046 7.00436L22.5046 7.00435L22.0714 7.254ZM21.7644 8.95L21.4466 8.56395L21.4463 8.56421L21.7644 8.95ZM19.9584 10.439L19.6403 10.0532C19.4984 10.1702 19.4322 10.3557 19.4679 10.5361L19.9584 10.439ZM20.4489 13.6581C20.555 13.1223 20.6124 12.5678 20.6124 12H19.6124C19.6124 12.5002 19.5618 12.9897 19.4679 13.4639L20.4489 13.6581ZM22.0825 14.6642L20.2765 13.1752L19.6403 13.9468L21.4463 15.4358L22.0825 14.6642ZM22.5046 16.9956C22.9511 16.2207 22.7744 15.2337 22.0821 14.6639L21.4466 15.4361C21.7604 15.6943 21.8417 16.1433 21.6382 16.4964L22.5046 16.9956ZM21.6356 18.5036L22.5046 16.9956L21.6382 16.4964L20.7692 18.0044L21.6356 18.5036ZM19.4071 19.3043C20.2454 19.6181 21.1873 19.2792 21.6353 18.5042L20.7695 18.0038C20.5655 18.3568 20.1374 18.5099 19.7577 18.3677L19.4071 19.3043ZM17.2087 18.4791L19.4067 19.3041L19.7581 18.3679L17.5601 17.5429L17.2087 18.4791ZM14.8539 20.0432C15.9189 19.6797 16.8858 19.1132 17.7141 18.3869L17.0547 17.6351C16.323 18.2768 15.4699 18.7763 14.5309 19.0968L14.8539 20.0432ZM14.8006 21.968L15.1856 19.652L14.1992 19.488L13.8142 21.804L14.8006 21.968ZM12.9934 23.5C13.8902 23.5 14.6535 22.8519 14.8006 21.9681L13.8142 21.8039C13.7472 22.2061 13.4006 22.5 12.9934 22.5V23.5ZM11.2554 23.5H12.9934V22.5H11.2554V23.5ZM9.44918 21.9681C9.59621 22.8516 10.3593 23.5 11.2554 23.5V22.5C10.8495 22.5 10.5026 22.2064 10.4356 21.8039L9.44918 21.9681ZM9.06416 19.652L9.44916 21.968L10.4356 21.804L10.0506 19.488L9.06416 19.652ZM6.53549 18.3867C7.3628 19.1131 8.33091 19.6808 9.39631 20.0433L9.71848 19.0967C8.77988 18.7772 7.92599 18.2769 7.1953 17.6353L6.53549 18.3867ZM4.8431 19.3041L7.0411 18.4791L6.68969 17.5429L4.49169 18.3679L4.8431 19.3041ZM2.61417 18.5036C3.06134 19.2796 4.00483 19.6179 4.8427 19.3043L4.49209 18.3677C4.11196 18.5101 3.68345 18.3564 3.48062 18.0044L2.61417 18.5036ZM1.74518 16.9956L2.61418 18.5036L3.48061 18.0044L2.61161 16.4964L1.74518 16.9956ZM2.16627 14.6643C1.47534 15.2341 1.2987 16.2208 1.74517 16.9956L2.61162 16.4964C2.40809 16.1432 2.48945 15.6939 2.80252 15.4357L2.16627 14.6643ZM3.97343 13.1751L2.16643 14.6641L2.80236 15.4359L4.60936 13.9469L3.97343 13.1751ZM3.6374 12C3.6374 12.5672 3.69369 13.122 3.8011 13.6591L4.78169 13.4629C4.6871 12.99 4.6374 12.5008 4.6374 12H3.6374ZM3.8011 10.3409C3.6937 10.878 3.6374 11.4318 3.6374 12H4.6374C4.6374 11.4982 4.68709 11.01 4.78169 10.5371L3.8011 10.3409ZM2.16643 9.33587L3.97343 10.8249L4.60936 10.0531L2.80236 8.56413L2.16643 9.33587ZM1.74517 7.00436C1.2987 7.77916 1.47534 8.76593 2.16627 9.33574L2.80252 8.56426C2.48945 8.30607 2.40809 7.85684 2.61162 7.50364L1.74517 7.00436ZM2.61418 5.49635L1.74518 7.00435L2.61161 7.50365L3.48061 5.99565L2.61418 5.49635ZM4.8427 4.69574C4.00483 4.38206 3.06134 4.72035 2.61417 5.49636L3.48062 5.99564C3.68345 5.64365 4.11196 5.48994 4.49209 5.63226L4.8427 4.69574ZM7.0411 5.52089L4.8431 4.69589L4.49169 5.63211L6.68969 6.45711L7.0411 5.52089ZM9.39631 3.95666C8.33091 4.31923 7.3628 4.88686 6.53549 5.61328L7.1953 6.36472C7.92599 5.72314 8.77988 5.22277 9.71848 4.90334L9.39631 3.95666ZM9.44916 2.03201L9.06416 4.34801L10.0506 4.51199L10.4356 2.19599L9.44916 2.03201ZM11.2554 0.5C10.3593 0.5 9.59621 1.14835 9.44918 2.03192L10.4356 2.19608C10.5026 1.79365 10.8495 1.5 11.2554 1.5V0.5ZM12.9934 0.5H11.2554V1.5H12.9934V0.5ZM14.8006 2.03192C14.6535 1.14813 13.8902 0.5 12.9934 0.5V1.5C13.4006 1.5 13.7472 1.79387 13.8142 2.19608L14.8006 2.03192ZM15.1856 4.34801L14.8006 2.03201L13.8142 2.19599L14.1992 4.51199L15.1856 4.34801ZM17.7141 5.61307C16.886 4.88695 15.9191 4.31929 14.8535 3.95666L14.5313 4.90334C15.4697 5.22271 16.3228 5.72305 17.0547 6.36493L17.7141 5.61307ZM19.4067 4.69589L17.2087 5.52089L17.5601 6.45711L19.7581 5.63211L19.4067 4.69589ZM21.6353 5.49578C21.1873 4.72077 20.2454 4.3819 19.4071 4.69574L19.7577 5.63226C20.1374 5.4901 20.5655 5.64323 20.7695 5.99622L21.6353 5.49578ZM22.5046 7.00435L21.6356 5.49635L20.7692 5.99565L21.6382 7.50365L22.5046 7.00435ZM22.0821 9.33605C22.7744 8.76626 22.9511 7.77926 22.5046 7.00436L21.6382 7.50364C21.8417 7.85674 21.7604 8.30574 21.4466 8.56395L22.0821 9.33605ZM20.2765 10.8248L22.0825 9.33579L21.4463 8.56421L19.6403 10.0532L20.2765 10.8248ZM20.6124 12C20.6124 11.4312 20.555 10.8777 20.4489 10.3419L19.4679 10.5361C19.5618 11.0103 19.6124 11.4988 19.6124 12H20.6124ZM14.624 12C14.624 13.3809 13.5049 14.5 12.124 14.5V15.5C14.0572 15.5 15.624 13.9331 15.624 12H14.624ZM12.124 9.5C13.5049 9.5 14.624 10.6191 14.624 12H15.624C15.624 10.0669 14.0572 8.5 12.124 8.5V9.5ZM9.62402 12C9.62402 10.6193 10.7441 9.5 12.124 9.5V8.5C10.192 8.5 8.62402 10.0667 8.62402 12H9.62402ZM12.124 14.5C10.7441 14.5 9.62402 13.3807 9.62402 12H8.62402C8.62402 13.9333 10.192 15.5 12.124 15.5V14.5Z" fill="#823CFF"/>
</svg>
